<svg width="17" height="16" viewBox="0 0 17 16" fill="none" xmlns="http://www.w3.org/2000/svg">
<g clip-path="url(#clip0)">
<path d="M15.3377 4.44444C15.2568 4.0404 14.933 3.71717 14.5282 3.71717H12.0186V3.39394C12.0186 1.45454 10.3995 -0.0808103 8.45654 -2.24356e-06C6.67553 -2.24356e-06 5.05643 1.53535 5.05643 3.39394V3.71717H2.54682C2.14204 3.71717 1.81822 4.0404 1.73727 4.44444L0.361031 15.1111C0.280075 15.5152 0.603896 15.9192 1.08963 16H1.17058H15.9044C16.3901 16 16.714 15.6768 16.714 15.1919V15.1111L15.3377 4.44444ZM6.67553 3.39394C6.67553 2.34343 7.56604 1.53535 8.61845 1.53535C9.67087 1.53535 10.4804 2.42424 10.4804 3.39394V3.71717H6.67553V3.39394ZM2.06109 14.3838L3.27542 5.33333H5.05643V6.22222C5.05643 6.70707 5.38025 7.0303 5.86598 7.0303C6.35171 7.0303 6.67553 6.70707 6.67553 6.22222V5.33333H10.4804V6.22222C10.4804 6.70707 10.8042 7.0303 11.29 7.0303C11.7757 7.0303 12.0995 6.70707 12.0995 6.22222V5.33333H13.8805L15.0139 14.3838H2.06109Z" fill="white"/>
</g>
<defs>
<clipPath id="clip0">
<rect width="16.3529" height="16" fill="white" transform="translate(0.360352)"/>
</clipPath>
</defs>
</svg>
